<svg width="250" height="250" viewBox="0 0 250 250" fill="none" xmlns="http://www.w3.org/2000/svg" xmlns:xlink="http://www.w3.org/1999/xlink">
<path d="M0 125L62.5 16.7468H187.5L250 125L187.5 233.253H62.5L0 125Z" fill="#FC726B"/>
<path d="M0 125L62.5 16.7468H187.5L250 125L187.5 233.253H62.5L0 125Z" fill="url(#pattern0_41_4)" fill-opacity="0.2"/>
<path d="M93.944 171H63.56L105.176 74.52H143.912L185.672 171H154.568L147.224 153.144H101.432L93.944 171ZM117.272 115.272L111.656 128.808H137.288L131.672 115.272L125.336 99H123.464L117.272 115.272Z" fill="#FDFCFC"/>
<defs>
<pattern id="pattern0_41_4" patternUnits="userSpaceOnUse" patternTransform="matrix(0 -24.6 49.2 0 112.7 135.652)" preserveAspectRatio="none" viewBox="1.33984 0 20 40" width="1" height="1">
<use xlink:href="#pattern0_41_4_inner" transform="translate(-20 0)"/>
<g id="pattern0_41_4_inner">
<path d="M10 0L18.6603 5V15L10 20L1.33975 15V5L10 0Z" fill="#FECE99"/>
</g>
<use xlink:href="#pattern0_41_4_inner" transform="translate(-10 20)"/>
<use xlink:href="#pattern0_41_4_inner" transform="translate(10 20)"/>
</pattern></defs>
</svg>
